HIERARCHY
ROOT ui
{
	 OFFSET 0 0 0
	 CHANNELS 3 XPosition YPosition Z Position
	 EndSite
	 {
	 OFFSET 0 -1 0
	 }
}
ROOT li
{
	 OFFSET 0 0 0
	 CHANNELS 3 XPosition YPosition Z Position
	 EndSite
	 {
	 OFFSET 0 -1 0
	 }
}
ROOT ul
{
	 OFFSET 0 0 0
	 CHANNELS 3 XPosition YPosition Z Position
	 EndSite
	 {
	 OFFSET 0 -1 0
	 }
}
ROOT ll
{
	 OFFSET 0 0 0
	 CHANNELS 3 XPosition YPosition Z Position
	 EndSite
	 {
	 OFFSET 0 -1 0
	 }
}
ROOT tt
{
	 OFFSET 0 0 0
	 CHANNELS 3 XPosition YPosition Z Position
	 EndSite
	 {
	 OFFSET 0 -1 0
	 }
}
ROOT tb
{
	 OFFSET 0 0 0
	 CHANNELS 3 XPosition YPosition Z Position
	 EndSite
	 {
	 OFFSET 0 -1 0
	 }
}
ROOT td
{
	 OFFSET 0 0 0
	 CHANNELS 3 XPosition YPosition Z Position
	 EndSite
	 {
	 OFFSET 0 -1 0
	 }
}
ROOT v
{
	 OFFSET 0 0 0
	 CHANNELS 3 XPosition YPosition Z Position
	 EndSite
	 {
	 OFFSET 0 -1 0
	 }
}
ROOT bn
{
	 OFFSET 0 0 0
	 CHANNELS 3 XPosition YPosition Z Position
	 EndSite
	 {
	 OFFSET 0 -1 0
	 }
}
MOTION
Frames: 19
Frame Time: 0.002
0.014169523239135742	0.0032710540294647217	0		0.4542091369628906	-2.6018759765625	0		-1.017474365234375	0.11114090728759765	0		-0.30961669921875	-3.2536728515625	0		1.46056640625	-0.7212266235351562	0		2.66773828125	0.17663604736328126	0		3.911455322265625	0.44495095825195313	0		5.985724609375	0.4510837097167969	0		-0.1594203338623047	5.91513671875	0		
0.007075980186462403	-0.00392290997505188	0		0.4791973876953125	-2.607489501953125	0		-1.0224095458984375	0.11589612579345702	0		-0.4094283447265625	-3.2446279296875	0		1.4544888916015626	-0.7284019165039063	0		2.675719970703125	0.17529928588867189	0		3.92544384765625	0.44456124877929687	0		5.98959375	0.44187503051757815	0		-0.19261601257324218	5.91028759765625	0		
-0.014869138717651368	1.062610000371933E-4	0		0.45229354858398435	-2.604383544921875	0		-1.0224126586914062	0.11560958862304688	0		-0.3105043029785156	-3.2562265625	0		1.4514500732421876	-0.7325963134765625	0		2.6998740234375	0.18676730346679687	0		3.9206083984375	0.4574435729980469	0		5.98181201171875	0.45884014892578123	0		-0.19273985290527343	5.91001806640625	0		
0.007075067043304443	-0.004430964946746826	0		0.4543698120117188	-2.602644775390625	0		-1.0224152221679688	0.11534686279296875	0		-0.4721334228515625	-3.232311279296875	0		1.4514637451171875	-0.7328115234375	0		2.686938232421875	0.1917494354248047	0		3.933785400390625	0.47110064697265625	0		5.98980224609375	0.45860494995117185	0		-0.19285366821289063	5.909771484375	0		
-0.011828188896179198	0.002600337028503418	0		0.4564431457519531	-2.6008857421875	0		-1.0342811279296875	0.12526648712158203	0		-0.3053175964355469	-3.251770263671875	0		1.45147802734375	-0.7330082397460937	0		2.70716162109375	0.20830564880371094	0		3.9339521484375	0.48394601440429685	0		5.98979541015625	0.45848727416992185	0		-0.192955078125	5.90954638671875	0		
0.011121803283691407	-0.0019077600240707396	0		0.4445701293945313	-2.594920654296875	0		-1.0474365234375	0.11322343444824219	0		-0.43806298828125	-3.23620361328125	0		1.4454019775390625	-0.7401064453125	0		2.72314892578125	0.20693293762207032	0		3.946948974609375	0.48363232421875	0		5.99779296875	0.45827224731445315	0		-0.19402809143066407	5.91035498046875	0		
0.011133387565612793	-0.0020890378952026366	0		0.44259072875976563	-2.597069091796875	0		-0.9724332275390625	0.11202820587158203	0		-0.30520550537109375	-3.252162109375	0		1.4603157958984374	-0.74846728515625	0		2.677268310546875	0.21540109252929687	0		3.942047607421875	0.49057095336914064	0		5.98979931640625	0.458279541015625	0		-0.1610204315185547	5.91573046875	0		
-0.014832007408142089	-9.044690132141113E-4	0		0.4525330200195313	-2.60535791015625	0		-1.047408935546875	0.11285362243652344	0		-0.47190692138671875	-3.23310546875	0		1.4393587646484376	-0.7473320922851563	0		2.702269287109375	0.2139383544921875	0		3.947153564453125	0.49738876342773436	0		5.9898125	0.4581887512207031	0		-0.17901661682128905	5.91980615234375	0		
0.014232145309448243	0.001567497968673706	0		0.456638427734375	-2.601548828125	0		-0.972389892578125	0.11170364379882812	0		-0.43179849243164065	-3.229784423828125	0		1.4393929443359375	-0.7474596557617188	0		2.71843896484375	0.22460943603515626	0		3.95534765625	0.5101784057617188	0		5.99394091796875	0.46605224609375	0		-0.17807504272460936	5.9176494140625	0		
-0.007677917003631592	0.005737963199615478	0		0.45086688232421873	-2.58858837890625	0		-1.047349365234375	0.11257150268554687	0		-0.4606163024902344	-3.220524658203125	0		1.46041845703125	-0.7488494262695312	0		2.70456640625	0.23169430541992186	0		3.96356396484375	0.523979736328125	0		5.9898662109375	0.458031005859375	0		-0.2282680206298828	5.9041923828125	0		
0.014309639930725098	0.0013437180519104005	0		0.4718025817871094	-2.59796630859375	0		-0.9922855224609375	0.11373231506347656	0		-0.42863818359375	-3.22705419921875	0		1.46926513671875	-0.7640617065429688	0		2.704607666015625	0.2316072540283203	0		3.955684326171875	0.5300055541992188	0		5.99790576171875	0.45785595703125	0		-0.19418156433105468	5.90963671875	0		
-0.011638287544250489	0.0016057070493698121	0		0.4448903198242187	-2.595689697265625	0		-0.9953953247070313	0.1016862564086914	0		-0.4802138366699219	-3.19945068359375	0		1.4662779541015625	-0.7671000366210937	0		2.70465673828125	0.23153311157226564	0		3.96365185546875	0.5238299560546875	0		5.9979541015625	0.4577932434082031	0		-0.195138916015625	5.9105654296875	0		
0.00732262897491455	-0.005712614059448242	0		0.4429237060546875	-2.597728759765625	0		-0.9894068603515624	0.09653890228271485	0		-0.43025051879882814	-3.207181640625	0		1.463281982421875	-0.7711239624023437	0		2.6958720703125	0.2435894775390625	0		3.981970703125	0.5435289306640625	0		5.99000927734375	0.4578426818847656	0		-0.17896136474609375	5.92028515625	0		
-0.011522501945495605	0.001488204002380371	0		0.4269323120117188	-2.60156689453125	0		-1.0653399658203124	0.09749757385253906	0		-0.48998556518554687	-3.191436767578125	0		1.46639501953125	-0.767215087890625	0		2.712930908203125	0.24331278991699218	0		3.990123046875	0.5503712768554687	0		5.99006982421875	0.4577920227050781	0		-0.17890151977539062	5.920234375	0		
0.014539071083068848	0.0011059950590133667	0		0.4471109619140625	-2.59287060546875	0		-0.9943353881835938	0.09251903533935547	0		-0.4916595153808594	-3.1714482421875	0		1.460365478515625	-0.7741732177734375	0		2.712994873046875	0.24327284240722657	0		3.98137451171875	0.5644481811523437	0		5.99813330078125	0.4576419677734375	0		-0.194962158203125	5.9104111328125	0		
-0.01139193058013916	0.0014278080463409424	0		0.4181748046875	-2.592509765625	0		-1.0074135131835937	0.08167116546630859	0		-0.4865334167480469	-3.16653759765625	0		1.5298131103515624	-0.8211260986328125	0		2.729060791015625	0.2430308837890625	0		3.990534423828125	0.5712959594726562	0		5.9943076171875	0.465658203125	0		-0.19488313293457032	5.91038818359375	0		
0.0146741943359375	0.001070294976234436	0		0.4701254577636719	-2.60121337890625	0		-1.011397705078125	0.07771538543701172	0		-0.4803675537109375	-3.15862890625	0		1.514814208984375	-0.8259422607421875	0		2.70821142578125	0.2492903289794922	0		4.00643017578125	0.5580619506835938	0		6.00727001953125	0.4574583740234375	0		-0.19479911804199218	5.91037646484375	0		
-0.01834722328186035	-0.005492218971252441	0		0.4063788146972656	-2.586366943359375	0		-1.07949560546875	0.06562152099609375	0		-0.4711753234863281	-3.148749755859375	0		1.5177607421875	-0.8349873657226563	0		2.72919921875	0.24300244140625	0		4.015672607421875	0.5709283447265625	0		5.99834033203125	0.4575597229003906	0		-0.17859596252441406	5.91916162109375	0		
0.01481057357788086	0.0010752869844436646	0		0.4493834228515625	-2.590932373046875	0		-1.0044343872070312	0.0646336669921875	0		-0.5248045043945313	-3.12502587890625	0		1.53861181640625	-0.8512618408203125	0		2.74933203125	0.2477365264892578	0		4.0118349609375	0.5779783935546875	0		6.0115146484375	0.46537896728515626	0		-0.17754109191894532	5.91715576171875	0		
